<svg width="450" height="835" viewBox="0 0 450 835" fill="none" xmlns="http://www.w3.org/2000/svg">
<g clip-path="url(#clip0_207_44)">
<rect width="450" height="835" fill="#E2C8C1"/>
<rect width="450" height="461" fill="#FFFAF9"/>
<rect x="51.5" y="210.5" width="348" height="466" stroke="#C2A59E" stroke-width="3"/>
<rect x="117.953" y="171" width="273.42" height="409.48" transform="rotate(7.85364 117.953 171)" fill="#C2A59E"/>
<path d="M48.8916 127.04C47.5049 127.04 46.3316 126.56 45.3716 125.6C44.4649 124.693 44.0116 123.547 44.0116 122.16C44.0116 120.72 44.4916 119.28 45.4516 117.84C48.1182 113.893 51.7716 111.173 56.4116 109.68C58.8116 103.813 60.0116 99.2 60.0116 95.84C60.0116 92.32 58.6249 90.56 55.8516 90.56C55.6916 90.56 55.5316 90.56 55.3716 90.56C55.2116 90.56 55.0516 90.5867 54.8916 90.64C55.6382 91.0667 56.0116 91.7333 56.0116 92.64C56.0116 94.5067 55.1582 95.84 53.4516 96.64C53.5049 96.4267 53.5316 96.2133 53.5316 96C53.5849 95.7867 53.6116 95.5733 53.6116 95.36C53.6116 93.3333 52.5716 92.3733 50.4916 92.48C51.8249 90.6667 53.6649 89.76 56.0116 89.76C59.4249 89.76 61.1316 91.7333 61.1316 95.68C61.1316 96.2667 61.0782 96.9333 60.9716 97.68C60.9182 98.4267 60.7849 99.2 60.5716 100C60.9982 98.7733 61.3982 97.36 61.7716 95.76C62.1982 94.16 62.6249 92.32 63.0516 90.24L63.6916 87.28H63.2916C58.6516 87.28 54.8382 88.2933 51.8516 90.32L51.6916 90.08L54.4916 87.84C56.6782 86.0267 59.9316 85.0133 64.2516 84.8C65.1049 80.7467 65.9316 77.2 66.7316 74.16C67.5849 71.12 68.3582 68.56 69.0516 66.48C67.9316 66.2667 66.8382 66.1067 65.7716 66C64.7582 65.8933 63.7182 65.84 62.6516 65.84C60.1982 65.84 57.7716 66.2133 55.3716 66.96C52.3316 67.92 50.8116 69.4133 50.8116 71.44C50.8116 72.24 51.1049 73.0933 51.6916 74C51.9582 74.48 52.1449 74.8533 52.2516 75.12C52.4116 75.3333 52.4916 75.4667 52.4916 75.52C52.4916 76.32 51.1582 77.2267 48.4916 78.24C47.7982 77.5467 47.4516 76.6933 47.4516 75.68C47.4516 72.48 49.5049 69.3867 53.6116 66.4C57.7716 63.36 61.4516 61.84 64.6516 61.84C66.3582 61.84 68.3849 62.1067 70.7316 62.64C71.5849 60.7733 72.5449 59.3867 73.6116 58.48C73.8249 58.2667 74.0916 58.0533 74.4116 57.84C74.7316 57.6267 75.1049 57.3333 75.5316 56.96C74.9982 57.8667 74.4382 58.8267 73.8516 59.84C73.2649 60.8533 72.7049 61.8933 72.1716 62.96C76.5982 63.9733 80.4916 64.7733 83.8516 65.36C87.2116 65.8933 90.0116 66.16 92.2516 66.16C96.9982 66.16 100.092 65.2 101.532 63.28C102.065 62.5867 102.465 62.24 102.732 62.24C102.892 62.24 102.972 62.32 102.972 62.48C102.972 62.64 102.892 62.88 102.732 63.2C100.065 67.7333 95.7449 70 89.7716 70C86.2516 70 81.7716 69.36 76.3316 68.08C74.8382 71.12 73.3982 76.8 72.0116 85.12C76.8116 85.7067 80.4916 86.16 83.0516 86.48C85.6116 86.7467 87.0516 86.88 87.3716 86.88C90.6249 86.88 93.3182 86.2933 95.4516 85.12C95.6649 85.12 95.7716 85.2 95.7716 85.36C95.7716 86.32 94.5716 87.36 92.1716 88.48C90.4649 89.3333 88.4382 89.76 86.0916 89.76C85.0782 89.76 83.3716 89.6267 80.9716 89.36C78.5716 89.04 75.4249 88.5867 71.5316 88C69.9849 97.0133 67.8516 102.72 65.1316 105.12L61.1316 108.72C61.5582 108.667 61.9849 108.64 62.4116 108.64C62.8382 108.587 63.2649 108.56 63.6916 108.56C65.4516 108.56 67.1849 108.773 68.8916 109.2C73.6382 110.533 77.9049 111.547 81.6916 112.24C85.4782 112.88 88.7582 113.2 91.5316 113.2C96.9716 113.2 100.652 112.08 102.572 109.84C103.692 108.56 104.252 107.12 104.252 105.52C104.252 104.613 104.012 103.867 103.532 103.28C103.052 102.64 102.812 102.293 102.812 102.24C102.812 101.867 102.972 101.68 103.292 101.68C104.305 101.68 104.812 102.773 104.812 104.96C104.812 106.72 104.252 108.4 103.132 110C100.092 114.16 94.8382 116.24 87.3716 116.24C85.7716 116.24 83.3182 115.973 80.0116 115.44C76.7582 114.907 72.6782 114.107 67.7716 113.04C66.4382 112.773 65.1316 112.587 63.8516 112.48C62.6249 112.32 61.4249 112.24 60.2516 112.24C58.9182 112.24 57.5582 112.32 56.1716 112.48C55.6382 113.6 55.1316 114.64 54.6516 115.6C54.2249 116.56 53.7449 117.467 53.2116 118.32C52.5716 119.387 52.1182 119.92 51.8516 119.92V119.84C51.8516 119.52 52.0649 118.96 52.4916 118.16C52.9182 117.253 53.3716 116.347 53.8516 115.44C54.3316 114.587 54.7582 113.653 55.1316 112.64C52.0382 113.28 49.5316 114.453 47.6116 116.16C45.7449 117.867 44.8116 119.653 44.8116 121.52C44.8116 124.507 46.7582 126 50.6516 126C50.9182 126 51.2116 125.973 51.5316 125.92C51.8516 125.92 52.0116 125.947 52.0116 126C52.0116 126.107 51.2382 126.32 49.6916 126.64C49.5316 126.693 49.3982 126.773 49.2916 126.88C49.1849 126.987 49.0516 127.04 48.8916 127.04ZM68.6516 84.8V84.72C68.6516 82.6933 68.9716 80.5867 69.6116 78.4C70.2516 76.16 70.8649 73.8133 71.4516 71.36C71.8782 70.7733 72.3849 70.1867 72.9716 69.6C73.5582 68.96 74.1716 68.3467 74.8116 67.76L70.5716 66.8C69.7182 68.9333 68.8649 71.4933 68.0116 74.48C67.1582 77.4667 66.2782 80.88 65.3716 84.72H66.0916C66.4649 84.72 66.8649 84.72 67.2916 84.72C67.7182 84.72 68.1716 84.7467 68.6516 84.8ZM57.6916 109.28L60.3316 108.8C62.0382 106.24 63.5316 103.2 64.8116 99.68C66.0916 96.1067 67.1849 92.08 68.0916 87.6C66.9716 87.44 65.8782 87.36 64.8116 87.36L62.9716 95.36C62.5982 96.8533 61.9849 98.56 61.1316 100.48C60.3316 102.347 59.4782 104.507 58.5716 106.96L57.6916 109.28ZM105.617 146.48C103.004 146.48 100.897 145.68 99.2972 144.08C97.6439 142.533 96.8172 140.453 96.8172 137.84C96.8172 135.12 97.5905 132.56 99.1372 130.16C100.631 127.76 102.631 125.627 105.137 123.76C107.644 121.947 110.417 120.507 113.457 119.44C116.551 118.427 119.617 117.92 122.657 117.92C123.511 117.92 124.284 117.973 124.977 118.08C125.671 118.187 126.337 118.347 126.977 118.56V118.16C126.977 115.813 126.204 113.707 124.657 111.84C123.271 109.92 121.377 108.96 118.977 108.96C118.711 108.96 118.044 109.2 116.977 109.68C115.964 110.213 115.297 110.48 114.977 110.48C114.177 110.48 113.777 110.107 113.777 109.36C113.777 109.2 114.124 108.8 114.817 108.16C115.511 107.467 116.604 106.613 118.097 105.6C120.977 103.36 122.417 101.307 122.417 99.44C122.417 97.2533 121.244 96.16 118.897 96.16C117.564 96.16 116.204 96.72 114.817 97.84C113.431 98.9067 112.071 100.267 110.737 101.92C109.404 103.52 108.097 105.173 106.817 106.88C106.657 107.04 106.471 107.12 106.257 107.12C106.044 107.12 105.937 106.987 105.937 106.72C105.937 106.4 106.124 106 106.497 105.52C108.044 103.387 109.484 101.493 110.817 99.84C112.151 98.1867 113.537 96.88 114.977 95.92C116.471 94.96 118.124 94.48 119.937 94.48C122.017 94.48 123.537 94.9867 124.497 96C125.457 96.96 125.937 98.2133 125.937 99.76C125.937 101.04 125.591 102.213 124.897 103.28C124.257 104.293 123.511 105.173 122.657 105.92C121.804 106.613 121.111 107.12 120.577 107.44C123.564 107.973 125.857 109.307 127.457 111.44C129.057 113.52 129.857 116.133 129.857 119.28C132.417 120.613 133.697 121.547 133.697 122.08C133.697 122.293 133.591 122.4 133.377 122.4C132.684 122.133 132.044 121.867 131.457 121.6C130.871 121.387 130.364 121.173 129.937 120.96C129.937 123.84 129.217 126.773 127.777 129.76C126.391 132.747 124.524 135.493 122.177 138C119.831 140.56 117.217 142.613 114.337 144.16C111.457 145.707 108.551 146.48 105.617 146.48ZM106.177 145.04C108.471 145.04 110.764 144.293 113.057 142.8C115.351 141.36 117.484 139.493 119.457 137.2C121.431 134.96 123.031 132.64 124.257 130.24C125.964 126.56 126.897 123.2 127.057 120.16C125.724 119.52 124.071 119.2 122.097 119.2C119.697 119.2 117.191 119.68 114.577 120.64C111.964 121.6 109.511 122.907 107.217 124.56C104.924 126.267 103.084 128.24 101.697 130.48C100.257 132.773 99.5372 135.2 99.5372 137.76C99.5372 139.787 100.124 141.493 101.297 142.88C102.471 144.32 104.097 145.04 106.177 145.04ZM139.653 114.64C137.467 114.64 135.573 114.027 133.973 112.8C132.427 111.52 131.653 109.6 131.653 107.04C131.653 104.213 132.587 101.307 134.453 98.32C135.413 96.7733 136.587 95.5467 137.973 94.64C139.36 93.68 140.587 93.2 141.653 93.2C143.2 93.2 143.973 94.1333 143.973 96C143.973 97.6 142.907 99.5467 140.773 101.84C138.8 103.867 136.933 105.253 135.173 106C135.12 106.213 135.067 106.453 135.013 106.72C135.013 106.933 135.013 107.173 135.013 107.44C135.013 110.8 137.013 112.48 141.013 112.48C143.307 112.48 145.44 111.787 147.413 110.4C149.44 108.96 151.2 107.333 152.693 105.52C152.96 105.2 153.2 105.04 153.413 105.04C153.627 105.04 153.733 105.147 153.733 105.36C153.733 105.573 153.627 105.867 153.413 106.24C153.2 106.56 153.04 106.773 152.933 106.88C152.08 108.053 151.173 109.093 150.213 110C149.307 110.907 148.08 111.787 146.533 112.64C145.413 113.333 144.24 113.84 143.013 114.16C141.84 114.48 140.72 114.64 139.653 114.64ZM135.493 104.32C136.187 103.947 136.853 103.52 137.493 103.04C138.187 102.507 138.853 101.893 139.493 101.2C140.933 99.4933 141.653 98 141.653 96.72C141.653 95.92 141.413 95.52 140.933 95.52C140.507 95.52 139.947 95.8933 139.253 96.64C138.613 97.3333 138 98.2133 137.413 99.28C136.4 101.36 135.76 103.04 135.493 104.32ZM171.231 115.6C169.204 115.6 167.338 115.013 165.631 113.84C163.924 112.667 162.698 110.693 161.951 107.92C161.898 107.547 161.791 106.96 161.631 106.16C161.524 105.307 161.391 104.187 161.231 102.8C159.631 104.24 157.684 106.747 155.391 110.32C155.124 110.747 154.778 111.28 154.351 111.92C153.978 112.507 153.498 113.2 152.911 114C152.698 114.213 152.404 114.32 152.031 114.32C151.071 114.32 150.591 113.787 150.591 112.72C150.591 112.507 151.284 110.24 152.671 105.92C161.951 77.3867 167.124 62.5867 168.191 61.52C168.404 61.3067 168.751 61.2 169.231 61.2C170.938 61.2 171.791 61.8133 171.791 63.04C171.791 63.7867 171.071 66 169.631 69.68C168.404 72.7733 167.151 75.84 165.871 78.88C164.591 81.92 163.311 84.96 162.031 88C157.978 97.92 155.978 103.6 156.031 105.04L164.591 97.92C166.458 96.3733 168.218 95.2533 169.871 94.56C171.524 93.8133 172.964 93.44 174.191 93.44C176.644 93.44 177.871 94.6667 177.871 97.12C177.871 98.4 177.284 99.6 176.111 100.72C174.991 101.787 173.631 102.667 172.031 103.36C170.431 104 168.911 104.32 167.471 104.32C166.724 104.32 166.004 104.187 165.311 103.92C165.311 106.587 165.924 108.853 167.151 110.72C167.844 111.787 168.671 112.56 169.631 113.04C170.644 113.467 171.684 113.68 172.751 113.68C173.818 113.68 174.911 113.493 176.031 113.12C177.151 112.747 178.164 112.293 179.071 111.76C180.671 110.747 181.978 109.76 182.991 108.8C184.058 107.84 185.124 106.747 186.191 105.52C186.458 105.253 186.671 105.12 186.831 105.12C187.044 105.12 187.151 105.253 187.151 105.52C187.151 105.68 187.071 105.92 186.911 106.24C186.751 106.507 186.618 106.72 186.511 106.88C185.764 107.84 184.911 108.773 183.951 109.68C182.991 110.587 181.844 111.493 180.511 112.4C179.124 113.413 177.604 114.187 175.951 114.72C174.351 115.307 172.778 115.6 171.231 115.6ZM166.511 102.48C168.058 102.48 169.551 102.053 170.991 101.2C172.431 100.347 173.151 99.3333 173.151 98.16C173.151 96.9333 172.431 96.32 170.991 96.32C170.084 96.32 169.151 96.6133 168.191 97.2C167.231 97.7867 166.324 98.48 165.471 99.28C164.618 100.027 163.844 100.747 163.151 101.44C164.004 102.133 165.124 102.48 166.511 102.48ZM193.467 89.68C192.827 89.68 192.24 89.3867 191.707 88.8C191.173 88.2133 190.907 87.6 190.907 86.96C190.907 85.4667 191.733 84.72 193.387 84.72C194.987 84.72 195.787 85.4933 195.787 87.04C195.787 88.8 195.013 89.68 193.467 89.68ZM192.427 114.64C190.613 114.64 189.093 114.027 187.867 112.8C186.693 111.52 186.107 109.68 186.107 107.28C186.107 104.347 186.907 101.36 188.507 98.32C189.093 97.2 190.107 96.64 191.547 96.64C192.4 96.64 192.827 96.9067 192.827 97.44C192.827 97.6 192.747 97.84 192.587 98.16C190.72 101.733 189.787 104.8 189.787 107.36C189.787 109.227 190.107 110.587 190.747 111.44C191.44 112.293 192.373 112.72 193.547 112.72C195.413 112.72 197.28 112.027 199.147 110.64C201.013 109.2 202.827 107.467 204.587 105.44C204.747 105.173 204.987 105.04 205.307 105.04C205.52 105.04 205.627 105.147 205.627 105.36C205.627 105.52 205.52 105.76 205.307 106.08C205.147 106.347 204.987 106.613 204.827 106.88C204.133 107.787 203.307 108.72 202.347 109.68C201.387 110.64 200.267 111.547 198.987 112.4C197.973 113.093 196.88 113.627 195.707 114C194.587 114.427 193.493 114.64 192.427 114.64ZM212.544 114.64C210.357 114.64 208.464 114.027 206.864 112.8C205.317 111.52 204.544 109.6 204.544 107.04C204.544 104.213 205.477 101.307 207.344 98.32C208.304 96.7733 209.477 95.5467 210.864 94.64C212.251 93.68 213.477 93.2 214.544 93.2C216.091 93.2 216.864 94.1333 216.864 96C216.864 97.6 215.797 99.5467 213.664 101.84C211.691 103.867 209.824 105.253 208.064 106C208.011 106.213 207.957 106.453 207.904 106.72C207.904 106.933 207.904 107.173 207.904 107.44C207.904 110.8 209.904 112.48 213.904 112.48C216.197 112.48 218.331 111.787 220.304 110.4C222.331 108.96 224.091 107.333 225.584 105.52C225.851 105.2 226.091 105.04 226.304 105.04C226.517 105.04 226.624 105.147 226.624 105.36C226.624 105.573 226.517 105.867 226.304 106.24C226.091 106.56 225.931 106.773 225.824 106.88C224.971 108.053 224.064 109.093 223.104 110C222.197 110.907 220.971 111.787 219.424 112.64C218.304 113.333 217.131 113.84 215.904 114.16C214.731 114.48 213.611 114.64 212.544 114.64ZM208.384 104.32C209.077 103.947 209.744 103.52 210.384 103.04C211.077 102.507 211.744 101.893 212.384 101.2C213.824 99.4933 214.544 98 214.544 96.72C214.544 95.92 214.304 95.52 213.824 95.52C213.397 95.52 212.837 95.8933 212.144 96.64C211.504 97.3333 210.891 98.2133 210.304 99.28C209.291 101.36 208.651 103.04 208.384 104.32ZM233.562 114.96C228.175 114.96 225.482 110.987 225.482 103.04C225.482 95.2533 228.042 86.8 233.162 77.68C238.175 68.6133 242.922 64.08 247.402 64.08C249.002 64.08 250.068 65.1733 250.602 67.36V68.4C250.602 72.24 247.642 78.72 241.722 87.84C239.215 91.7867 236.842 95.2267 234.602 98.16C232.415 101.093 230.362 103.573 228.442 105.6C229.082 110.4 231.295 112.8 235.082 112.8C237.375 112.8 239.322 112.16 240.922 110.88C242.522 109.547 244.228 107.76 246.042 105.52C246.362 105.2 246.575 105.04 246.682 105.04C246.842 105.04 246.922 105.173 246.922 105.44C246.922 105.813 246.735 106.293 246.362 106.88C244.068 109.813 241.908 111.893 239.882 113.12C237.855 114.347 235.748 114.96 233.562 114.96ZM228.522 103.6C231.402 100.773 235.162 95.1733 239.802 86.8C244.708 77.8933 247.162 71.76 247.162 68.4C247.162 66.9067 246.735 66.16 245.882 66.16C242.575 66.16 238.815 70.9067 234.602 80.4C232.628 85.0933 231.108 89.36 230.042 93.2C229.028 97.04 228.522 100.507 228.522 103.6Z" fill="#666057"/>
<path d="M179.894 182.88C178.134 182.88 176.614 182.48 175.334 181.68C173.841 180.667 173.094 179.387 173.094 177.84C173.094 177.627 173.201 177.52 173.414 177.52C173.574 177.52 173.681 177.627 173.734 177.84C174.108 180.453 175.841 181.76 178.934 181.76C184.961 181.76 190.321 175.333 195.014 162.48C193.041 163.013 191.094 163.413 189.174 163.68C187.308 163.893 185.441 164 183.574 164C179.948 164 176.748 163.467 173.974 162.4C170.188 161.067 168.294 158.853 168.294 155.76C168.294 152.613 170.348 148.987 174.454 144.88C172.268 142.907 171.174 140.48 171.174 137.6C171.174 133.387 173.468 129.867 178.054 127.04C182.001 124.427 186.241 123.12 190.774 123.12C194.348 123.12 196.134 123.467 196.134 124.16C196.081 124.32 196.001 124.4 195.894 124.4C195.361 124.4 194.561 124.293 193.494 124.08C192.481 123.867 191.681 123.76 191.094 123.76C187.041 123.76 183.201 124.96 179.574 127.36C175.521 130.133 173.494 133.413 173.494 137.2C173.494 139.547 174.321 141.627 175.974 143.44C177.894 141.68 180.028 140 182.374 138.4C184.774 136.747 187.388 135.147 190.214 133.6C192.721 132.213 195.254 130.88 197.814 129.6C200.374 128.267 202.908 126.933 205.414 125.6C205.841 124.373 206.214 123.333 206.534 122.48C206.908 121.627 207.201 120.96 207.414 120.48C207.894 119.413 208.374 118.533 208.854 117.84C209.388 117.093 209.921 116.453 210.454 115.92C211.201 115.067 211.921 114.453 212.614 114.08C213.361 113.707 214.001 113.52 214.534 113.52C215.921 113.52 216.614 114.293 216.614 115.84C216.614 118.453 213.494 121.6 207.254 125.28C206.401 127.467 205.308 131.813 203.974 138.32C208.401 135.28 212.721 133.76 216.934 133.76C221.254 133.76 223.414 135.387 223.414 138.64C223.414 141.36 221.574 144.853 217.894 149.12C212.988 154.773 206.668 158.8 198.934 161.2C194.454 175.653 188.108 182.88 179.894 182.88ZM207.734 124.24C209.068 123.547 210.508 122.373 212.054 120.72C214.081 118.8 215.094 117.387 215.094 116.48C215.094 115.893 214.881 115.6 214.454 115.6C213.921 115.6 213.121 116.107 212.054 117.12C211.414 117.653 210.748 118.533 210.054 119.76C209.361 120.933 208.588 122.427 207.734 124.24ZM184.454 146.96C188.348 146.96 194.001 144.613 201.414 139.92C202.108 137.093 202.748 134.587 203.334 132.4C203.974 130.16 204.561 128.213 205.094 126.56C203.814 127.2 202.241 128.027 200.374 129.04C198.508 130.053 196.321 131.253 193.814 132.64C190.668 134.507 187.761 136.48 185.094 138.56C182.481 140.64 180.161 142.853 178.134 145.2C179.094 145.733 180.081 146.16 181.094 146.48C182.161 146.8 183.281 146.96 184.454 146.96ZM199.174 160C202.641 158.933 205.734 157.547 208.454 155.84C211.228 154.133 213.628 152.133 215.654 149.84C218.854 146.213 220.454 143.227 220.454 140.88C220.454 138.053 218.294 136.64 213.974 136.64C212.268 136.64 210.561 136.853 208.854 137.28C207.148 137.707 205.441 138.373 203.734 139.28C203.308 141.573 202.694 144.453 201.894 147.92C201.148 151.387 200.241 155.413 199.174 160ZM186.454 162.4C187.894 162.4 189.361 162.32 190.854 162.16C192.348 161.947 193.841 161.653 195.334 161.28C196.134 159.147 197.014 156.373 197.974 152.96C198.934 149.493 200.001 145.387 201.174 140.64C194.614 145.92 188.854 148.56 183.894 148.56C181.388 148.56 179.041 147.92 176.854 146.64C174.454 149.68 173.254 152.373 173.254 154.72C173.254 157.493 174.854 159.573 178.054 160.96C180.401 161.92 183.201 162.4 186.454 162.4ZM285.457 122.72C284.924 122.667 284.604 120.72 284.497 116.88C284.71 115.813 285.137 114.427 285.777 112.72C286.417 110.96 287.324 108.907 288.497 106.56C288.817 106.453 289.057 106.4 289.217 106.4C290.177 106.4 290.657 107.387 290.657 109.36C290.124 110.213 289.59 111.093 289.057 112C288.524 112.853 288.017 113.707 287.537 114.56C286.097 117.333 285.404 120.053 285.457 122.72ZM262.977 175.2C254.817 175.2 248.497 173.253 244.017 169.36C240.337 166.053 238.497 161.84 238.497 156.72C238.497 150.96 240.87 146.267 245.617 142.64C249.884 139.333 254.764 137.653 260.257 137.6C264.844 137.6 268.444 138.773 271.057 141.12C273.35 143.253 274.497 145.867 274.497 148.96C274.497 152.107 273.377 154.8 271.137 157.04C268.577 159.493 265.324 160.72 261.377 160.72C260.897 160.72 260.657 160.64 260.657 160.48C260.657 160.16 260.897 159.973 261.377 159.92C263.084 159.547 264.604 159.013 265.937 158.32C267.324 157.627 268.497 156.72 269.457 155.6C271.27 153.627 272.177 151.333 272.177 148.72C272.177 145.84 271.137 143.493 269.057 141.68C266.924 139.707 264.097 138.72 260.577 138.72C255.777 138.72 251.564 140.293 247.937 143.44C243.99 146.747 242.017 150.96 242.017 156.08C242.017 161.093 243.537 165.12 246.577 168.16C250.097 171.893 255.377 173.76 262.417 173.76C269.297 173.76 275.057 171.707 279.697 167.6C284.764 163.227 287.297 157.707 287.297 151.04C287.297 146.187 285.43 141.573 281.697 137.2L272.977 128.24C271.377 126.587 270.204 124.96 269.457 123.36C268.764 121.707 268.417 120.133 268.417 118.64C268.417 115.333 269.697 112.693 272.257 110.72C274.71 108.747 277.564 107.76 280.817 107.76C282.097 107.76 283.377 107.947 284.657 108.32C285.937 108.693 286.577 109.147 286.577 109.68C286.577 109.947 286.417 110.08 286.097 110.08C285.937 110.08 285.297 109.84 284.177 109.36C283.27 108.987 282.337 108.8 281.377 108.8C278.977 108.8 276.844 109.68 274.977 111.44C273.164 113.253 272.257 115.333 272.257 117.68C272.257 120.347 273.51 123.013 276.017 125.68L284.177 133.28C286.79 135.68 288.71 138.293 289.937 141.12C291.217 143.893 291.857 146.827 291.857 149.92C291.857 157.067 288.79 163.147 282.657 168.16C276.897 172.853 270.337 175.2 262.977 175.2ZM282.257 148.96C281.99 149.067 281.857 148.907 281.857 148.48C281.484 145.867 280.417 143.2 278.657 140.48C278.55 141.28 278.39 142.187 278.177 143.2C277.164 143.36 276.257 143.013 275.457 142.16C275.35 142 275.217 141.76 275.057 141.44C274.95 141.12 274.897 140.747 274.897 140.32V139.76C274.897 139.173 274.977 138.773 275.137 138.56C276.257 139.36 277.19 139.68 277.937 139.52C276.71 137.76 275.297 136.16 273.697 134.72C272.097 133.227 270.364 131.893 268.497 130.72C264.604 128.373 261.164 127.2 258.177 127.2C254.977 127.2 252.764 128.533 251.537 131.2C252.124 130.773 252.71 130.56 253.297 130.56C253.937 130.56 254.55 130.747 255.137 131.12C256.204 131.867 256.71 132.72 256.657 133.68C255.964 133.36 255.217 133.2 254.417 133.2C252.924 133.2 251.83 133.84 251.137 135.12C250.55 134.213 250.257 133.44 250.257 132.8C250.257 132 250.63 131.013 251.377 129.84C252.924 127.28 255.324 126 258.577 126C263.43 126 268.444 128.4 273.617 133.2C276.284 135.547 278.444 137.973 280.097 140.48C281.75 142.933 282.577 145.493 282.577 148.16V148.4C282.577 148.667 282.47 148.853 282.257 148.96ZM308.037 139.68C307.397 139.68 306.81 139.387 306.277 138.8C305.744 138.213 305.477 137.6 305.477 136.96C305.477 135.467 306.304 134.72 307.957 134.72C309.557 134.72 310.357 135.493 310.357 137.04C310.357 138.8 309.584 139.68 308.037 139.68ZM306.997 164.64C305.184 164.64 303.664 164.027 302.437 162.8C301.264 161.52 300.677 159.68 300.677 157.28C300.677 154.347 301.477 151.36 303.077 148.32C303.664 147.2 304.677 146.64 306.117 146.64C306.97 146.64 307.397 146.907 307.397 147.44C307.397 147.6 307.317 147.84 307.157 148.16C305.29 151.733 304.357 154.8 304.357 157.36C304.357 159.227 304.677 160.587 305.317 161.44C306.01 162.293 306.944 162.72 308.117 162.72C309.984 162.72 311.85 162.027 313.717 160.64C315.584 159.2 317.397 157.467 319.157 155.44C319.317 155.173 319.557 155.04 319.877 155.04C320.09 155.04 320.197 155.147 320.197 155.36C320.197 155.52 320.09 155.76 319.877 156.08C319.717 156.347 319.557 156.613 319.397 156.88C318.704 157.787 317.877 158.72 316.917 159.68C315.957 160.64 314.837 161.547 313.557 162.4C312.544 163.093 311.45 163.627 310.277 164C309.157 164.427 308.064 164.64 306.997 164.64ZM331.114 165.2C330.634 165.2 330.261 164.8 329.994 164V162.48C329.994 155.867 329.141 152.56 327.434 152.56C326.314 152.56 324.608 154.373 322.314 158C321.674 158.96 321.034 159.92 320.394 160.88C319.808 161.84 319.221 162.8 318.634 163.76C318.314 163.867 318.074 163.92 317.914 163.92C317.381 163.92 317.114 163.52 317.114 162.72V162.48L318.074 159.28C319.194 155.92 320.021 153.253 320.554 151.28C321.088 149.253 321.354 147.92 321.354 147.28C321.354 147.067 321.328 146.933 321.274 146.88C322.341 145.92 323.354 145.44 324.314 145.44C324.794 145.44 324.981 145.573 324.874 145.84L323.434 153.92C323.968 153.173 325.061 152.24 326.714 151.12C327.568 150.533 328.288 150.107 328.874 149.84C329.514 149.573 330.021 149.44 330.394 149.44C332.048 149.44 332.981 152.773 333.194 159.44C333.781 158.373 334.554 157.04 335.514 155.44C336.528 153.84 337.701 152 339.034 149.92C339.781 148.907 340.581 148.4 341.434 148.4C342.234 148.4 342.714 148.907 342.874 149.92C343.034 152 343.194 153.947 343.354 155.76C343.514 157.52 343.861 158.933 344.394 160C344.928 161.067 345.834 161.627 347.114 161.68C348.714 161.68 350.288 161.093 351.834 159.92C353.434 158.693 354.874 157.227 356.154 155.52C356.421 155.093 356.688 154.88 356.954 154.88C357.114 154.88 357.194 155.093 357.194 155.52C357.194 155.627 357.088 155.867 356.874 156.24C356.661 156.56 356.501 156.773 356.394 156.88C355.488 158.213 354.421 159.52 353.194 160.8C352.021 162.027 350.768 163.04 349.434 163.84C348.101 164.587 346.768 164.96 345.434 164.96C343.461 164.96 342.021 163.893 341.114 161.76C340.208 159.627 339.648 156.613 339.434 152.72C338.314 153.733 337.114 155.547 335.834 158.16C335.034 159.653 334.368 160.907 333.834 161.92C333.301 162.88 332.901 163.573 332.634 164C332.101 164.8 331.594 165.2 331.114 165.2ZM358.228 165.44C356.254 165.44 355.268 164 355.268 161.12C355.268 160.373 355.348 159.547 355.508 158.64C355.668 157.733 355.881 156.773 356.148 155.76C356.681 153.893 357.481 151.787 358.548 149.44C360.148 146.133 361.481 144.48 362.548 144.48C363.561 144.48 364.388 145.04 365.028 146.16C365.454 146 365.801 145.92 366.068 145.92C367.561 145.92 368.308 147.04 368.308 149.28C368.308 150.24 368.121 151.36 367.748 152.64C367.374 153.92 366.734 155.52 365.828 157.44C367.161 158.667 368.468 159.28 369.748 159.28C370.761 159.28 371.721 159.04 372.628 158.56C373.534 158.027 374.548 157.013 375.668 155.52C375.774 155.413 375.934 155.36 376.148 155.36C376.308 155.36 376.388 155.52 376.388 155.84C376.388 156.16 376.254 156.507 375.988 156.88C375.294 157.787 374.414 158.613 373.348 159.36C372.334 160.053 371.054 160.4 369.508 160.4C367.961 160.4 366.574 159.867 365.348 158.8C363.321 163.227 360.948 165.44 358.228 165.44ZM364.868 156.4C365.294 155.44 365.614 154.453 365.828 153.44C366.041 152.427 366.148 151.333 366.148 150.16C366.148 148.347 365.614 147.44 364.548 147.44C363.534 147.44 363.028 148.427 363.028 150.4C363.028 151.253 363.214 152.293 363.588 153.52C364.014 154.747 364.441 155.707 364.868 156.4ZM359.668 163.2C360.414 163.2 361.348 162.48 362.468 161.04C362.948 160.453 363.348 159.867 363.668 159.28C363.988 158.64 364.201 158.213 364.308 158C363.508 157.093 362.814 156.133 362.228 155.12C361.641 154.107 361.294 153.067 361.188 152C360.548 152.533 359.881 153.92 359.188 156.16C358.494 158.4 358.148 160.027 358.148 161.04C358.148 162.48 358.654 163.2 359.668 163.2ZM375.357 164.72C374.984 164.72 374.584 164.48 374.157 164C373.784 163.52 373.597 163.093 373.597 162.72V162.48L374.317 161.12C374.744 159.893 375.17 158.427 375.597 156.72C376.024 154.96 376.424 152.96 376.797 150.72C376.85 150.187 376.93 149.627 377.037 149.04C377.144 148.4 377.25 147.68 377.357 146.88C377.624 145.813 378.45 145.28 379.837 145.28C380.264 145.28 380.477 145.44 380.477 145.76C380.477 145.867 380.424 146.24 380.317 146.88C380.21 147.52 380.05 148.4 379.837 149.52C379.624 150.747 379.357 152.08 379.037 153.52C378.77 154.96 378.45 156.507 378.077 158.16L381.837 151.84C383.704 148.693 385.277 147.12 386.557 147.12C387.357 147.12 387.784 147.6 387.837 148.56C387.997 150.8 388.104 153.013 388.157 155.2C388.264 157.387 388.557 159.2 389.037 160.64C389.57 162.08 390.504 162.8 391.837 162.8C392.744 162.8 393.624 162.613 394.477 162.24C395.384 161.867 396.397 161.173 397.517 160.16C398.637 159.093 399.97 157.547 401.517 155.52C401.57 155.413 401.677 155.28 401.837 155.12C401.997 154.96 402.184 154.88 402.397 154.88C402.61 154.88 402.717 154.987 402.717 155.2C402.717 155.413 402.584 155.707 402.317 156.08C402.104 156.453 401.944 156.72 401.837 156.88C400.397 159.013 398.77 160.8 396.957 162.24C395.144 163.68 393.437 164.4 391.837 164.4C389.49 164.4 387.757 163.227 386.637 160.88C385.57 158.48 384.824 155.093 384.397 150.72C383.544 151.627 382.53 152.987 381.357 154.8C380.237 156.613 378.93 158.933 377.437 161.76C377.33 162.027 377.17 162.347 376.957 162.72C376.744 163.04 376.504 163.467 376.237 164C376.024 164.48 375.73 164.72 375.357 164.72ZM402.416 164.48C400.23 164.48 399.136 163.413 399.136 161.28C399.136 159.253 400.603 156.427 403.536 152.8C406.203 149.44 408.523 147.12 410.496 145.84C412.47 144.56 414.31 143.92 416.016 143.92C418.043 143.92 419.056 144.507 419.056 145.68C419.056 145.947 418.79 146.347 418.256 146.88C417.723 147.36 417.43 147.653 417.376 147.76C416.363 149.413 415.856 152.773 415.856 157.84C415.856 160.773 416.496 162.24 417.776 162.24C418.95 162.24 420.31 161.547 421.856 160.16C423.403 158.773 424.843 157.227 426.176 155.52C426.336 155.36 426.47 155.28 426.576 155.28C426.79 155.28 426.896 155.413 426.896 155.68C426.896 155.787 426.843 155.973 426.736 156.24C426.683 156.507 426.603 156.72 426.496 156.88C424.31 159.813 422.416 161.787 420.816 162.8C419.27 163.813 417.75 164.32 416.256 164.32C413.856 164.32 412.683 161.76 412.736 156.64C411.723 158.453 410.256 160.16 408.336 161.76C406.096 163.573 404.123 164.48 402.416 164.48ZM404.576 162.32C405.483 162.32 406.443 161.947 407.456 161.2C410.603 158.693 412.656 154 413.616 147.12C413.456 147.12 413.35 147.093 413.296 147.04C412.23 147.04 410.816 147.68 409.056 148.96C407.563 149.973 406.363 151.067 405.456 152.24C403.323 155.013 402.256 157.413 402.256 159.44C402.256 161.36 403.03 162.32 404.576 162.32Z" fill="#666057"/>
</g>
<defs>
<clipPath id="clip0_207_44">
<rect width="450" height="835" fill="white"/>
</clipPath>
</defs>
</svg>
